<mxfile host="app.diagrams.net" modified="2024-03-29T02:57:44.071Z" agent="Mozilla/5.0 (Windows NT 10.0; Win64; x64) AppleWebKit/537.36 (KHTML, like Gecko) Chrome/123.0.0.0 Safari/537.36 Edg/123.0.0.0" etag="QZkMhdj9dkGFiBf4qDEl" version="24.1.0" type="github">
  <diagram name="第 1 页" id="2TeoL5pHLwXWrM2XrvUJ">
    <mxGraphModel dx="1213" dy="738" grid="1" gridSize="10" guides="1" tooltips="1" connect="1" arrows="1" fold="1" page="1" pageScale="1" pageWidth="827" pageHeight="1169" math="0" shadow="0">
      <root>
        <mxCell id="0" />
        <mxCell id="1" parent="0" />
        <mxCell id="ZPfrbP8PcyrTd2XvZCjv-1" value="人员" style="whiteSpace=wrap;html=1;aspect=fixed;fillColor=#60a917;fontColor=#ffffff;strokeColor=#2D7600;" parent="1" vertex="1">
          <mxGeometry x="124" y="210" width="60" height="60" as="geometry" />
        </mxCell>
        <mxCell id="ZPfrbP8PcyrTd2XvZCjv-2" value="班次" style="whiteSpace=wrap;html=1;aspect=fixed;fillColor=#60a917;fontColor=#ffffff;strokeColor=#2D7600;" parent="1" vertex="1">
          <mxGeometry x="350" y="420" width="60" height="60" as="geometry" />
        </mxCell>
        <mxCell id="ZPfrbP8PcyrTd2XvZCjv-3" value="区域" style="whiteSpace=wrap;html=1;aspect=fixed;fillColor=#60a917;fontColor=#ffffff;strokeColor=#2D7600;" parent="1" vertex="1">
          <mxGeometry x="350" y="205" width="60" height="60" as="geometry" />
        </mxCell>
        <mxCell id="ZPfrbP8PcyrTd2XvZCjv-4" value="告警信息" style="whiteSpace=wrap;html=1;aspect=fixed;fillColor=#60a917;fontColor=#ffffff;strokeColor=#2D7600;" parent="1" vertex="1">
          <mxGeometry x="580" y="420" width="60" height="60" as="geometry" />
        </mxCell>
        <mxCell id="ZPfrbP8PcyrTd2XvZCjv-5" value="采集卡" style="whiteSpace=wrap;html=1;aspect=fixed;fillColor=#60a917;fontColor=#ffffff;strokeColor=#2D7600;" parent="1" vertex="1">
          <mxGeometry x="580" y="205" width="60" height="60" as="geometry" />
        </mxCell>
        <mxCell id="ZPfrbP8PcyrTd2XvZCjv-41" value="" style="edgeStyle=orthogonalEdgeStyle;rounded=0;orthogonalLoop=1;jettySize=auto;html=1;" parent="1" source="ZPfrbP8PcyrTd2XvZCjv-6" target="ZPfrbP8PcyrTd2XvZCjv-36" edge="1">
          <mxGeometry relative="1" as="geometry" />
        </mxCell>
        <mxCell id="ZPfrbP8PcyrTd2XvZCjv-6" value="班制" style="whiteSpace=wrap;html=1;aspect=fixed;fillColor=#60a917;fontColor=#ffffff;strokeColor=#2D7600;" parent="1" vertex="1">
          <mxGeometry x="124" y="420" width="60" height="60" as="geometry" />
        </mxCell>
        <mxCell id="ZPfrbP8PcyrTd2XvZCjv-7" value="考勤" style="whiteSpace=wrap;html=1;aspect=fixed;fillColor=#60a917;fontColor=#ffffff;strokeColor=#2D7600;" parent="1" vertex="1">
          <mxGeometry x="820" y="200" width="60" height="60" as="geometry" />
        </mxCell>
        <mxCell id="ZPfrbP8PcyrTd2XvZCjv-8" value="资质" style="whiteSpace=wrap;html=1;aspect=fixed;fillColor=#60a917;fontColor=#ffffff;strokeColor=#2D7600;" parent="1" vertex="1">
          <mxGeometry x="820" y="420" width="60" height="60" as="geometry" />
        </mxCell>
        <mxCell id="ZPfrbP8PcyrTd2XvZCjv-11" value="换卡" style="whiteSpace=wrap;html=1;aspect=fixed;fillColor=#0050ef;fontColor=#ffffff;strokeColor=#001DBC;" parent="1" vertex="1">
          <mxGeometry x="500" y="205" width="50" height="50" as="geometry" />
        </mxCell>
        <mxCell id="ZPfrbP8PcyrTd2XvZCjv-13" value="绑卡" style="whiteSpace=wrap;html=1;aspect=fixed;fillColor=#0050ef;fontColor=#ffffff;strokeColor=#001DBC;" parent="1" vertex="1">
          <mxGeometry x="500" y="265" width="50" height="50" as="geometry" />
        </mxCell>
        <mxCell id="ZPfrbP8PcyrTd2XvZCjv-14" value="注销" style="whiteSpace=wrap;html=1;aspect=fixed;fillColor=#0050ef;fontColor=#ffffff;strokeColor=#001DBC;" parent="1" vertex="1">
          <mxGeometry x="500" y="330" width="50" height="50" as="geometry" />
        </mxCell>
        <mxCell id="ZPfrbP8PcyrTd2XvZCjv-15" value="卡已 更换" style="whiteSpace=wrap;html=1;aspect=fixed;fillColor=#e51400;fontColor=#ffffff;strokeColor=#B20000;" parent="1" vertex="1">
          <mxGeometry x="660" y="205" width="50" height="50" as="geometry" />
        </mxCell>
        <mxCell id="ZPfrbP8PcyrTd2XvZCjv-16" value="卡已绑定" style="whiteSpace=wrap;html=1;aspect=fixed;fillColor=#e51400;fontColor=#ffffff;strokeColor=#B20000;" parent="1" vertex="1">
          <mxGeometry x="660" y="270" width="50" height="50" as="geometry" />
        </mxCell>
        <mxCell id="ZPfrbP8PcyrTd2XvZCjv-17" value="卡已注销" style="whiteSpace=wrap;html=1;aspect=fixed;fillColor=#e51400;fontColor=#ffffff;strokeColor=#B20000;" parent="1" vertex="1">
          <mxGeometry x="660" y="340" width="50" height="50" as="geometry" />
        </mxCell>
        <mxCell id="ZPfrbP8PcyrTd2XvZCjv-18" value="新增人员" style="whiteSpace=wrap;html=1;aspect=fixed;fillColor=#0050ef;fontColor=#ffffff;strokeColor=#001DBC;" parent="1" vertex="1">
          <mxGeometry x="44" y="210" width="50" height="50" as="geometry" />
        </mxCell>
        <mxCell id="ZPfrbP8PcyrTd2XvZCjv-19" value="新增来宾" style="whiteSpace=wrap;html=1;aspect=fixed;fillColor=#0050ef;fontColor=#ffffff;strokeColor=#001DBC;" parent="1" vertex="1">
          <mxGeometry x="44" y="270" width="50" height="50" as="geometry" />
        </mxCell>
        <mxCell id="ZPfrbP8PcyrTd2XvZCjv-20" value="添加资质" style="whiteSpace=wrap;html=1;aspect=fixed;fillColor=#0050ef;fontColor=#ffffff;strokeColor=#001DBC;" parent="1" vertex="1">
          <mxGeometry x="750" y="420" width="50" height="50" as="geometry" />
        </mxCell>
        <mxCell id="ZPfrbP8PcyrTd2XvZCjv-21" value="人员已添加" style="whiteSpace=wrap;html=1;aspect=fixed;fillColor=#e51400;fontColor=#ffffff;strokeColor=#B20000;" parent="1" vertex="1">
          <mxGeometry x="204" y="210" width="50" height="50" as="geometry" />
        </mxCell>
        <mxCell id="ZPfrbP8PcyrTd2XvZCjv-22" value="来宾已新增" style="whiteSpace=wrap;html=1;aspect=fixed;fillColor=#e51400;fontColor=#ffffff;strokeColor=#B20000;" parent="1" vertex="1">
          <mxGeometry x="204" y="270" width="50" height="50" as="geometry" />
        </mxCell>
        <mxCell id="ZPfrbP8PcyrTd2XvZCjv-23" value="白名单已添加" style="whiteSpace=wrap;html=1;aspect=fixed;fillColor=#e51400;fontColor=#ffffff;strokeColor=#B20000;" parent="1" vertex="1">
          <mxGeometry x="204" y="330" width="50" height="50" as="geometry" />
        </mxCell>
        <mxCell id="ZPfrbP8PcyrTd2XvZCjv-24" value="新增区域" style="whiteSpace=wrap;html=1;aspect=fixed;fillColor=#0050ef;fontColor=#ffffff;strokeColor=#001DBC;" parent="1" vertex="1">
          <mxGeometry x="280" y="205" width="50" height="50" as="geometry" />
        </mxCell>
        <mxCell id="ZPfrbP8PcyrTd2XvZCjv-25" value="新增工作面" style="whiteSpace=wrap;html=1;aspect=fixed;fillColor=#0050ef;fontColor=#ffffff;strokeColor=#001DBC;" parent="1" vertex="1">
          <mxGeometry x="280" y="265" width="50" height="50" as="geometry" />
        </mxCell>
        <mxCell id="ZPfrbP8PcyrTd2XvZCjv-26" value="区域配置" style="whiteSpace=wrap;html=1;aspect=fixed;fillColor=#0050ef;fontColor=#ffffff;strokeColor=#001DBC;" parent="1" vertex="1">
          <mxGeometry x="280" y="330" width="50" height="50" as="geometry" />
        </mxCell>
        <mxCell id="ZPfrbP8PcyrTd2XvZCjv-27" value="区域已添加" style="whiteSpace=wrap;html=1;aspect=fixed;fillColor=#e51400;fontColor=#ffffff;strokeColor=#B20000;" parent="1" vertex="1">
          <mxGeometry x="420" y="205" width="50" height="50" as="geometry" />
        </mxCell>
        <mxCell id="ZPfrbP8PcyrTd2XvZCjv-28" value="工作面已添加" style="whiteSpace=wrap;html=1;aspect=fixed;fillColor=#e51400;fontColor=#ffffff;strokeColor=#B20000;" parent="1" vertex="1">
          <mxGeometry x="420" y="265" width="50" height="50" as="geometry" />
        </mxCell>
        <mxCell id="ZPfrbP8PcyrTd2XvZCjv-29" value="区域已配置" style="whiteSpace=wrap;html=1;aspect=fixed;fillColor=#e51400;fontColor=#ffffff;strokeColor=#B20000;" parent="1" vertex="1">
          <mxGeometry x="420" y="330" width="50" height="50" as="geometry" />
        </mxCell>
        <mxCell id="ZPfrbP8PcyrTd2XvZCjv-30" value="创建考勤记录" style="whiteSpace=wrap;html=1;aspect=fixed;fillColor=#0050ef;fontColor=#ffffff;strokeColor=#001DBC;" parent="1" vertex="1">
          <mxGeometry x="750" y="205" width="50" height="50" as="geometry" />
        </mxCell>
        <mxCell id="ZPfrbP8PcyrTd2XvZCjv-31" value="考勤日报导出" style="whiteSpace=wrap;html=1;aspect=fixed;fillColor=#0050ef;fontColor=#ffffff;strokeColor=#001DBC;" parent="1" vertex="1">
          <mxGeometry x="750" y="265" width="50" height="50" as="geometry" />
        </mxCell>
        <mxCell id="ZPfrbP8PcyrTd2XvZCjv-32" value="考勤月报" style="whiteSpace=wrap;html=1;aspect=fixed;fillColor=#0050ef;fontColor=#ffffff;strokeColor=#001DBC;" parent="1" vertex="1">
          <mxGeometry x="750" y="330" width="50" height="50" as="geometry" />
        </mxCell>
        <mxCell id="ZPfrbP8PcyrTd2XvZCjv-33" value="考勤记录已创建" style="whiteSpace=wrap;html=1;aspect=fixed;fillColor=#e51400;fontColor=#ffffff;strokeColor=#B20000;" parent="1" vertex="1">
          <mxGeometry x="900" y="200" width="50" height="50" as="geometry" />
        </mxCell>
        <mxCell id="ZPfrbP8PcyrTd2XvZCjv-34" value="考勤日报已导出" style="whiteSpace=wrap;html=1;aspect=fixed;fillColor=#e51400;fontColor=#ffffff;strokeColor=#B20000;" parent="1" vertex="1">
          <mxGeometry x="900" y="265" width="50" height="50" as="geometry" />
        </mxCell>
        <mxCell id="ZPfrbP8PcyrTd2XvZCjv-35" value="考勤月报已导出" style="whiteSpace=wrap;html=1;aspect=fixed;fillColor=#e51400;fontColor=#ffffff;strokeColor=#B20000;" parent="1" vertex="1">
          <mxGeometry x="900" y="330" width="50" height="50" as="geometry" />
        </mxCell>
        <mxCell id="ZPfrbP8PcyrTd2XvZCjv-36" value="新增班制" style="whiteSpace=wrap;html=1;aspect=fixed;fillColor=#0050ef;fontColor=#ffffff;strokeColor=#001DBC;" parent="1" vertex="1">
          <mxGeometry x="44" y="420" width="50" height="50" as="geometry" />
        </mxCell>
        <mxCell id="ZPfrbP8PcyrTd2XvZCjv-37" value="导出班制" style="whiteSpace=wrap;html=1;aspect=fixed;fillColor=#0050ef;fontColor=#ffffff;strokeColor=#001DBC;" parent="1" vertex="1">
          <mxGeometry x="44" y="500" width="50" height="50" as="geometry" />
        </mxCell>
        <mxCell id="ZPfrbP8PcyrTd2XvZCjv-38" value="新增白名单" style="whiteSpace=wrap;html=1;aspect=fixed;fillColor=#0050ef;fontColor=#ffffff;strokeColor=#001DBC;" parent="1" vertex="1">
          <mxGeometry x="44" y="340" width="50" height="50" as="geometry" />
        </mxCell>
        <mxCell id="ZPfrbP8PcyrTd2XvZCjv-39" value="班制已添加" style="whiteSpace=wrap;html=1;aspect=fixed;fillColor=#e51400;fontColor=#ffffff;strokeColor=#B20000;" parent="1" vertex="1">
          <mxGeometry x="204" y="420" width="50" height="50" as="geometry" />
        </mxCell>
        <mxCell id="ZPfrbP8PcyrTd2XvZCjv-40" value="班制已导出" style="whiteSpace=wrap;html=1;aspect=fixed;fillColor=#e51400;fontColor=#ffffff;strokeColor=#B20000;" parent="1" vertex="1">
          <mxGeometry x="204" y="500" width="50" height="50" as="geometry" />
        </mxCell>
        <mxCell id="ZPfrbP8PcyrTd2XvZCjv-42" value="新增班次" style="whiteSpace=wrap;html=1;aspect=fixed;fillColor=#0050ef;fontColor=#ffffff;strokeColor=#001DBC;" parent="1" vertex="1">
          <mxGeometry x="280" y="420" width="50" height="50" as="geometry" />
        </mxCell>
        <mxCell id="ZPfrbP8PcyrTd2XvZCjv-43" value="导出班次" style="whiteSpace=wrap;html=1;aspect=fixed;fillColor=#0050ef;fontColor=#ffffff;strokeColor=#001DBC;" parent="1" vertex="1">
          <mxGeometry x="280" y="500" width="50" height="50" as="geometry" />
        </mxCell>
        <mxCell id="ZPfrbP8PcyrTd2XvZCjv-44" value="班次已添加" style="whiteSpace=wrap;html=1;aspect=fixed;fillColor=#e51400;fontColor=#ffffff;strokeColor=#B20000;" parent="1" vertex="1">
          <mxGeometry x="420" y="420" width="50" height="50" as="geometry" />
        </mxCell>
        <mxCell id="ZPfrbP8PcyrTd2XvZCjv-45" value="班制=次已导出" style="whiteSpace=wrap;html=1;aspect=fixed;fillColor=#e51400;fontColor=#ffffff;strokeColor=#B20000;" parent="1" vertex="1">
          <mxGeometry x="420" y="500" width="50" height="50" as="geometry" />
        </mxCell>
        <mxCell id="ZPfrbP8PcyrTd2XvZCjv-46" value="资质已添加" style="whiteSpace=wrap;html=1;aspect=fixed;fillColor=#e51400;fontColor=#ffffff;strokeColor=#B20000;" parent="1" vertex="1">
          <mxGeometry x="910" y="420" width="50" height="50" as="geometry" />
        </mxCell>
        <mxCell id="ZPfrbP8PcyrTd2XvZCjv-47" value="新增告警" style="whiteSpace=wrap;html=1;aspect=fixed;fillColor=#0050ef;fontColor=#ffffff;strokeColor=#001DBC;" parent="1" vertex="1">
          <mxGeometry x="500" y="420" width="50" height="50" as="geometry" />
        </mxCell>
        <mxCell id="ZPfrbP8PcyrTd2XvZCjv-48" value="消息已推送" style="whiteSpace=wrap;html=1;aspect=fixed;fillColor=#e51400;fontColor=#ffffff;strokeColor=#B20000;" parent="1" vertex="1">
          <mxGeometry x="660" y="490" width="50" height="50" as="geometry" />
        </mxCell>
        <mxCell id="ZPfrbP8PcyrTd2XvZCjv-49" value="消息推送" style="whiteSpace=wrap;html=1;aspect=fixed;fillColor=#0050ef;fontColor=#ffffff;strokeColor=#001DBC;" parent="1" vertex="1">
          <mxGeometry x="500" y="490" width="50" height="50" as="geometry" />
        </mxCell>
        <mxCell id="ZPfrbP8PcyrTd2XvZCjv-51" value="告警已添加" style="whiteSpace=wrap;html=1;aspect=fixed;fillColor=#e51400;fontColor=#ffffff;strokeColor=#B20000;" parent="1" vertex="1">
          <mxGeometry x="660" y="420" width="50" height="50" as="geometry" />
        </mxCell>
      </root>
    </mxGraphModel>
  </diagram>
</mxfile>
